<svg xmlns="http://www.w3.org/2000/svg" viewBox="0 0 140 90">
  <!-- Van body -->
  <path d="M10 28 L10 65 L130 65 L130 38 L105 20 L10 20 Z" fill="#f0f0f0" stroke="#b8b8b8" stroke-width="1.5" stroke-linejoin="round"/>
  <!-- Roof line -->
  <path d="M10 20 L105 20 L130 38" fill="none" stroke="#c8c8c8" stroke-width="1"/>
  <!-- Rear door -->
  <rect x="10" y="28" width="22" height="37" rx="2" fill="#e8e8e8" stroke="#c0c0c0" stroke-width="1"/>
  <line x1="21" y1="28" x2="21" y2="65" stroke="#d0d0d0" stroke-width="0.8"/>
  <circle cx="18" cy="47" r="1.5" fill="#a0a0a0"/>
  <circle cx="24" cy="47" r="1.5" fill="#a0a0a0"/>
  <!-- Side windows -->
  <rect x="70" y="24" width="18" height="16" rx="2" fill="#a8d0f0" stroke="#7ab0d8" stroke-width="1"/>
  <rect x="92" y="28" width="18" height="14" rx="2" fill="#a8d0f0" stroke="#7ab0d8" stroke-width="1"/>
  <!-- Windshield -->
  <path d="M112 30 L125 38 L125 52 L112 52 Z" fill="#a8d0f0" stroke="#7ab0d8" stroke-width="1" stroke-linejoin="round"/>
  <!-- Headlight -->
  <rect x="128" y="48" width="4" height="7" rx="1.5" fill="#ffe066" stroke="#d4a800" stroke-width="0.8"/>
  <!-- Side mirror -->
  <rect x="130" y="34" width="5" height="4" rx="1" fill="#c0c8d0" stroke="#a0a8b0" stroke-width="0.8"/>
  <!-- Bumper -->
  <rect x="10" y="65" width="124" height="4" rx="1.5" fill="#d0d0d0" stroke="#b0b0b0" stroke-width="1"/>
  <!-- Rear wheel -->
  <circle cx="38" cy="72" r="10" fill="#505050"/>
  <circle cx="38" cy="72" r="6" fill="#707070"/>
  <circle cx="38" cy="72" r="2.5" fill="#909090"/>
  <!-- Front wheel -->
  <circle cx="108" cy="72" r="10" fill="#505050"/>
  <circle cx="108" cy="72" r="6" fill="#707070"/>
  <circle cx="108" cy="72" r="2.5" fill="#909090"/>
</svg>
